<svg width="56" height="35" viewBox="0 0 56 35" fill="none" xmlns="http://www.w3.org/2000/svg">
<path d="M16.2004 0C17.8448 0 19.3244 0.142379 20.6812 0.43272C22.0296 0.720269 23.1798 1.19486 24.1513 1.85092C25.1089 2.50698 25.8571 3.378 26.3959 4.47236C26.9179 5.55276 27.1776 6.90396 27.1776 8.50084C27.1776 10.2317 26.7867 11.6778 26.0022 12.8308C25.2122 13.9866 24.048 14.933 22.4958 15.6644C24.6092 16.2758 26.1753 17.3451 27.2138 18.8638C28.258 20.3964 28.7688 22.2306 28.7688 24.3802C28.7688 26.1251 28.4366 27.6242 27.7694 28.8833C27.1264 30.1236 26.1937 31.1905 25.0503 31.9933C23.8659 32.818 22.543 33.4232 21.1446 33.78C19.6784 34.1649 18.1686 34.3582 16.6527 34.3551H0V0H16.2004ZM15.2205 13.8805C16.5606 13.8805 17.6717 13.5623 18.5483 12.9174C19.4193 12.2808 19.8409 11.2312 19.8409 9.79341C19.8409 8.99498 19.6985 8.33612 19.4193 7.81965C19.1473 7.32278 18.7448 6.90963 18.2552 6.62479C17.7427 6.32085 17.1771 6.11716 16.5885 6.02457C15.9469 5.90492 15.2953 5.84788 14.6427 5.85427H7.56561V13.8805H15.2205ZM15.6421 28.5064C16.3875 28.5064 17.0966 28.4422 17.7638 28.2915C18.4366 28.1463 19.0341 27.9118 19.5422 27.5628C20.0503 27.2278 20.469 26.7728 20.7705 26.1921C21.0748 25.617 21.2228 24.866 21.2228 23.9643C21.2228 22.1943 20.7231 20.9352 19.7348 20.1731C18.7437 19.4193 17.4149 19.0452 15.7873 19.0452H7.56561V28.5092H15.6421V28.5064ZM39.5533 28.392C40.5779 29.3914 42.0547 29.8939 43.9754 29.8939C45.3518 29.8939 46.541 29.5449 47.5433 28.8526C48.5316 28.1575 49.1346 27.4149 49.3663 26.6471H55.3825C54.4165 29.6399 52.9509 31.7783 50.9464 33.0653C48.9671 34.3579 46.5578 35 43.7437 35C41.7839 35 40.0195 34.6845 38.4394 34.0592C36.9227 33.4685 35.5522 32.5561 34.4221 31.3847C33.3107 30.186 32.4515 28.7762 31.8956 27.239C31.2845 25.5391 30.982 23.7437 31.0022 21.9375C31.0022 20.0782 31.3121 18.3389 31.9207 16.7337C32.4984 15.182 33.3856 13.7639 34.5282 12.5656C35.6589 11.3931 36.9989 10.469 38.5595 9.79062C40.2005 9.10044 41.9664 8.75639 43.7465 8.78001C45.8515 8.78001 47.6912 9.1876 49.2714 10.0084C50.8037 10.7919 52.1323 11.9217 53.1519 13.3082C54.1653 14.6845 54.8883 16.2619 55.3378 18.029C55.7873 19.7934 55.9436 21.636 55.8152 23.565H37.8615C37.8643 25.5304 38.526 27.3925 39.5533 28.392ZM47.4037 15.3238C46.5913 14.4249 45.2178 13.9391 43.5371 13.9391C42.4456 13.9391 41.5438 14.1206 40.818 14.4947C40.1543 14.8299 39.5655 15.2962 39.0871 15.8654C38.667 16.3822 38.3555 16.9786 38.1714 17.6186C38.0104 18.1524 37.9065 18.7017 37.8615 19.2574H48.9782C48.8163 17.5154 48.2189 16.2284 47.4037 15.3238ZM36.4657 2.30597H50.3936V5.69793H36.4657V2.30597Z" fill="#202529"/>
</svg>
