<svg width="86" height="71" viewBox="0 0 86 71" fill="none" xmlns="http://www.w3.org/2000/svg">
<path d="M9.39136 8.49461C9.23074 4.07524 12.8244 0 17.682 0H67.4568C72.3143 0 75.908 4.07524 75.7474 8.49461C75.5931 12.7398 75.7935 18.239 77.2379 22.7229C78.687 27.2207 81.1305 30.0636 85.1326 30.4289V34.5711C81.1305 34.9364 78.687 37.7793 77.2379 42.2771C75.7935 46.761 75.5931 52.2602 75.7474 56.5056C75.908 60.9248 72.3143 65 67.4568 65H17.682C12.8244 65 9.23074 60.9248 9.39152 56.5056C9.54566 52.2602 9.3453 46.761 7.9007 42.2771C6.45179 37.7793 4.00223 34.9364 0 34.5711V30.4289C4.00206 30.0636 6.45179 27.2207 7.9007 22.7229C9.3453 18.239 9.54566 12.7398 9.39136 8.49461Z" fill="url(#paint0_linear_37_661)"/>
<g filter="url(#filter0_d_37_661)">
<path d="M44.4126 49.7786C52.2769 49.7786 57.0159 46.0892 57.0159 40.0039C57.0159 35.404 53.6345 32.0739 48.6137 31.5467V31.3551C52.3025 30.7801 55.1972 27.4979 55.1972 23.8324C55.1972 18.6097 50.8936 15.2075 44.3358 15.2075H29.5806V49.7786H44.4126ZM35.3187 19.5918H42.9525C47.1024 19.5918 49.459 21.3647 49.459 24.575C49.459 28.001 46.7182 29.9176 41.7485 29.9176H35.3187V19.5918ZM35.3187 45.3944V34.0145H42.9012C48.3319 34.0145 51.1497 35.931 51.1497 39.6685C51.1497 43.4059 48.4088 45.3944 43.2342 45.3944H35.3187Z" fill="url(#paint1_linear_37_661)"/>
<path d="M44.4126 49.7786C52.2769 49.7786 57.0159 46.0892 57.0159 40.0039C57.0159 35.404 53.6345 32.0739 48.6137 31.5467V31.3551C52.3025 30.7801 55.1972 27.4979 55.1972 23.8324C55.1972 18.6097 50.8936 15.2075 44.3358 15.2075H29.5806V49.7786H44.4126ZM35.3187 19.5918H42.9525C47.1024 19.5918 49.459 21.3647 49.459 24.575C49.459 28.001 46.7182 29.9176 41.7485 29.9176H35.3187V19.5918ZM35.3187 45.3944V34.0145H42.9012C48.3319 34.0145 51.1497 35.931 51.1497 39.6685C51.1497 43.4059 48.4088 45.3944 43.2342 45.3944H35.3187Z" stroke="white"/>
</g>
<defs>
<filter id="filter0_d_37_661" x="13.0806" y="2.70752" width="60.4353" height="67.571" filterUnits="userSpaceOnUse" color-interpolation-filters="sRGB">
<feFlood flood-opacity="0" result="BackgroundImageFix"/>
<feColorMatrix in="SourceAlpha" type="matrix" values="0 0 0 0 0 0 0 0 0 0 0 0 0 0 0 0 0 0 127 0" result="hardAlpha"/>
<feOffset dy="4"/>
<feGaussianBlur stdDeviation="8"/>
<feColorMatrix type="matrix" values="0 0 0 0 0 0 0 0 0 0 0 0 0 0 0 0 0 0 0.15 0"/>
<feBlend mode="normal" in2="BackgroundImageFix" result="effect1_dropShadow_37_661"/>
<feBlend mode="normal" in="SourceGraphic" in2="effect1_dropShadow_37_661" result="shape"/>
</filter>
<linearGradient id="paint0_linear_37_661" x1="12.65" y1="1.72027" x2="84.5594" y2="61.296" gradientUnits="userSpaceOnUse">
<stop stop-color="#9013FE"/>
<stop offset="1" stop-color="#6610F2"/>
</linearGradient>
<linearGradient id="paint1_linear_37_661" x1="32.1756" y1="17.483" x2="47.7722" y2="45.0127" gradientUnits="userSpaceOnUse">
<stop stop-color="white"/>
<stop offset="1" stop-color="#F1E5FC"/>
</linearGradient>
</defs>
</svg>
