<svg width="50" height="65" viewBox="0 0 50 65" fill="none" xmlns="http://www.w3.org/2000/svg">
<path fill-rule="evenodd" clip-rule="evenodd" d="M19.4222 59.2747L20.9236 64.9998H28.134L29.535 59.179L19.4222 59.2747Z" fill="#61A706"/>
<path fill-rule="evenodd" clip-rule="evenodd" d="M23.1826 55.2245L23.4564 56.0337L23.6298 56.3948L25.3685 56.4035L25.5739 56.3078L25.8249 55.7422C26.8973 53.1102 29.713 41.8774 30.2971 39.0104C31.8852 31.2318 33.0763 23.3053 32.4967 15.3614C32.2777 12.3596 31.6844 9.00543 30.507 6.1994C29.608 4.04593 28.2572 1.57922 25.8796 0.622127C23.2967 -0.417629 20.805 2.10563 19.6915 4.15034C13.7818 15.0047 17.5558 33.7247 20.3167 44.8226L21.2477 48.6293C21.8592 50.8349 22.5528 52.7926 23.1826 55.2245Z" fill="#979797"/>
<path fill-rule="evenodd" clip-rule="evenodd" d="M22.4433 55.7727L21.4165 54.9679C9.14982 43.9873 -7.67124 7.06947 18.8427 0.261027C19.9242 -0.0174018 19.7006 0.0478549 20.7457 0C-0.0867028 8.55732 13.9689 41.9209 22.4433 55.7727Z" fill="#979797"/>
<path fill-rule="evenodd" clip-rule="evenodd" d="M26.8789 55.7727L27.9057 54.9679C40.1724 43.9873 56.9934 7.06947 30.4795 0.261027C29.398 -0.0174018 29.6216 0.0478549 28.5765 0C49.4089 8.55732 35.3579 41.9209 26.8789 55.7727Z" fill="#979797"/>
<path fill-rule="evenodd" clip-rule="evenodd" d="M10.2861 2.93225C5.07005 5.24669 1.06329 10.2715 0.200792 15.7226L0 18.037L0.0228175 19.899L0.296627 21.9524L0.447222 22.9312C2.5008 33.7073 11.8925 47.8332 20.157 55.3203C8.72997 40.7855 -8.51549 17.7934 10.2861 2.93225Z" fill="#979797"/>
<path fill-rule="evenodd" clip-rule="evenodd" d="M39.0362 2.93225C44.2523 5.24669 48.259 10.2715 49.1215 15.7226L49.3223 18.037L49.2949 19.899L49.0211 21.9524L48.8705 22.9312C46.8169 33.7073 37.4253 47.8332 29.1608 55.3203C40.5923 40.7855 57.8378 17.7934 39.0362 2.93225Z" fill="#979797"/>
</svg>
