<svg width="61" height="65" viewBox="0 0 61 65" fill="none" xmlns="http://www.w3.org/2000/svg">
<path d="M60.2768 19.11C60.2763 18.0171 60.0327 17.0513 59.54 16.2224C59.056 15.4074 58.3313 14.7242 57.3591 14.1841C49.3342 9.74468 41.3015 5.31884 33.2791 0.87489C31.1164 -0.323045 29.0194 -0.279373 26.8727 0.93576C23.6785 2.74307 7.68646 11.5334 2.92104 14.1816C0.958508 15.2716 0.0035378 16.9398 0.00306609 19.108C0 28.0359 0.00306609 36.9636 0 45.8918C0 46.9608 0.233731 47.9078 0.70473 48.7242C1.18894 49.5639 1.92386 50.2658 2.91845 50.8182C7.6841 53.4664 23.6783 62.2561 26.8717 64.0638C29.0194 65.2796 31.1164 65.3231 33.2799 64.1247C41.3024 59.6805 49.3356 55.2549 57.3617 50.8155C58.3563 50.2634 59.0912 49.561 59.5754 48.7219C60.0457 47.9055 60.2799 46.9585 60.2799 45.8893C60.2799 45.8893 60.2799 28.0382 60.2768 19.11Z" fill="#A179DC"/>
<path d="M30.2323 32.4128L0.704834 48.7241C1.18904 49.5639 1.92396 50.2658 2.91855 50.8181C7.68421 53.4663 23.6784 62.256 26.8718 64.0638C29.0195 65.2796 31.1165 65.323 33.28 64.1246C41.3025 59.6804 49.3357 55.2548 57.3618 50.8154C58.3564 50.2633 59.0913 49.5609 59.5755 48.7219L30.2323 32.4128Z" fill="#280068"/>
<path d="M60.2768 19.1101C60.2764 18.0172 60.0327 17.0514 59.54 16.2225L30.2322 32.413L59.5754 48.722C60.0457 47.9056 60.2794 46.9586 60.2799 45.8894C60.2799 45.8894 60.2799 28.0383 60.2768 19.1101Z" fill="#390091"/>
<path d="M47.6169 26.3153V29.3642H50.7948V26.3153H52.3837V29.3642H55.5615V30.8886H52.3837V33.9374H55.5615V35.4618H52.3837V38.5107H50.7948V35.4618H47.6169V38.5107H46.028V35.4618H42.8502V33.9374H46.028V30.8886H42.8502V29.3642H46.028V26.3153H47.6169ZM50.7948 30.8886H47.6169V33.9374H50.7948V30.8886Z" fill="white"/>
<path d="M30.297 11.0032C38.5857 11.0032 45.8225 15.3221 49.6987 21.7416L49.6609 21.6798L39.9086 27.0672C37.9872 23.946 34.4648 21.8396 30.4242 21.7962L30.297 21.7956C24.1351 21.7956 19.1397 26.5881 19.1397 32.4998C19.1397 34.4331 19.6769 36.2453 20.6111 37.8105C22.5343 41.0317 26.1497 43.2043 30.297 43.2043C34.4699 43.2043 38.1058 41.0041 40.0192 37.7485L39.9727 37.8266L49.7103 43.2388C45.8766 49.604 38.739 53.9096 30.5465 53.9954L30.297 53.9967C21.982 53.9967 14.7247 49.6512 10.8583 43.1977C8.97073 40.0472 7.89075 36.3947 7.89075 32.4998C7.89075 20.6277 17.9221 11.0032 30.297 11.0032Z" fill="white"/>
</svg>
