<svg width="60" height="65" viewBox="0 0 60 65" fill="none" xmlns="http://www.w3.org/2000/svg">
<path d="M59.7381 0L54.2958 58.4932L29.8325 65L5.43653 58.5024L0 0H59.7381Z" fill="#264DE4"/>
<path d="M29.8691 60.0265L49.6367 54.7686L54.2875 4.78345H29.8691V60.0265Z" fill="#2965F1"/>
<path d="M29.8691 26.4812H12.4631L13.1334 33.6562H29.8691V26.4812Z" fill="#EBEBEB"/>
<path d="M29.8692 11.9586H29.8434H11.1165L11.7963 19.1338H29.8692V11.9586Z" fill="#EBEBEB"/>
<path d="M13.4675 37.2438L14.5153 48.5097L29.8346 52.5898L29.869 52.5807V45.1156L29.8363 45.1239L21.5073 42.9662L20.9749 37.2438H16.9276H13.4675Z" fill="#EBEBEB"/>
<path d="M39.0523 33.6562L38.1842 42.9617L29.8433 45.1216V52.5864L45.1748 48.5097L45.2873 47.2975L47.0446 28.4079L47.2271 26.4812L48.5772 11.9586H29.8433V19.1338H40.3813L39.7009 26.4812H29.8433V33.6562H39.0523Z" fill="white"/>
</svg>
