<svg width="226" height="226" viewBox="0 0 226 226" fill="none" xmlns="http://www.w3.org/2000/svg">
<g filter="url(#filter0_d_43_353)">
<circle cx="113" cy="109" r="109" fill="white"/>
<circle cx="113" cy="109" r="99" stroke="url(#paint0_linear_43_353)" stroke-width="20"/>
</g>
<path d="M105.992 103.963L105.3 103.425C95.1573 94.5522 78.8413 95.3768 73.9245 95.2842C69.0077 95.1916 57 93 57 93C57.6438 99.1251 66.2384 103.517 66.2384 103.517C65.3346 104.065 64.2611 104.261 63.2221 104.068C64.4127 105.621 72.2797 110.193 72.2797 110.193C71.4551 111.203 69.8058 111.384 69.8058 111.384C72.5531 114.859 81.712 115.957 81.712 115.957C81.8047 118.603 80.248 118.978 80.248 118.978C83.6347 120.896 91.2238 120.442 91.2238 120.442C91.043 121.906 89.6716 123.087 89.6716 123.087C102.843 126.016 110.984 115.953 110.984 115.953C111.419 115.736 111.898 115.623 112.384 115.623C112.87 115.623 113.349 115.736 113.784 115.953C113.784 115.953 121.911 126.02 135.096 123.101C135.096 123.101 133.725 121.915 133.544 120.455C133.544 120.455 141.133 120.896 144.52 118.991C144.52 118.991 142.963 118.625 143.056 115.97C143.056 115.97 152.201 114.872 154.962 111.397C154.962 111.397 153.317 111.217 152.492 110.207C152.492 110.207 160.359 105.634 161.55 104.082C160.51 104.274 159.435 104.078 158.529 103.53C158.529 103.53 167.128 99.1207 167.79 93.0132C167.79 93.0132 155.804 95.2181 150.865 95.2975C145.926 95.3768 129.646 94.5654 119.49 103.438L118.78 103.94" fill="#AA1E25"/>
<path d="M119.503 108.311C119.503 109.722 119.085 111.101 118.301 112.275C117.517 113.448 116.402 114.362 115.099 114.902C113.795 115.442 112.36 115.584 110.976 115.308C109.592 115.033 108.321 114.354 107.323 113.356C106.325 112.358 105.646 111.087 105.37 109.703C105.095 108.318 105.236 106.884 105.777 105.58C106.317 104.276 107.231 103.162 108.404 102.378C109.578 101.594 110.957 101.176 112.368 101.176C113.305 101.175 114.234 101.359 115.099 101.718C115.965 102.076 116.752 102.601 117.415 103.264C118.077 103.927 118.603 104.714 118.961 105.579C119.32 106.445 119.504 107.373 119.503 108.311Z" fill="white"/>
<path d="M119.503 108.311C119.503 109.722 119.085 111.101 118.301 112.275C117.517 113.448 116.402 114.362 115.099 114.902C113.795 115.442 112.36 115.584 110.976 115.308C109.592 115.033 108.321 114.354 107.323 113.356C106.325 112.358 105.646 111.087 105.37 109.703C105.095 108.318 105.236 106.884 105.777 105.58C106.317 104.276 107.231 103.162 108.404 102.378C109.578 101.594 110.957 101.176 112.368 101.176C113.305 101.175 114.234 101.359 115.099 101.718C115.965 102.076 116.752 102.601 117.415 103.264C118.077 103.927 118.603 104.714 118.961 105.579C119.32 106.445 119.504 107.373 119.503 108.311V108.311Z" stroke="#AA1E25" stroke-width="4" stroke-miterlimit="10"/>
<defs>
<filter id="filter0_d_43_353" x="0" y="0" width="226" height="226" filterUnits="userSpaceOnUse" color-interpolation-filters="sRGB">
<feFlood flood-opacity="0" result="BackgroundImageFix"/>
<feColorMatrix in="SourceAlpha" type="matrix" values="0 0 0 0 0 0 0 0 0 0 0 0 0 0 0 0 0 0 127 0" result="hardAlpha"/>
<feOffset dy="4"/>
<feGaussianBlur stdDeviation="2"/>
<feComposite in2="hardAlpha" operator="out"/>
<feColorMatrix type="matrix" values="0 0 0 0 0 0 0 0 0 0 0 0 0 0 0 0 0 0 0.25 0"/>
<feBlend mode="normal" in2="BackgroundImageFix" result="effect1_dropShadow_43_353"/>
<feBlend mode="normal" in="SourceGraphic" in2="effect1_dropShadow_43_353" result="shape"/>
</filter>
<linearGradient id="paint0_linear_43_353" x1="4" y1="0" x2="222" y2="218" gradientUnits="userSpaceOnUse">
<stop offset="0.484375" stop-color="#EBEBEB"/>
<stop offset="1" stop-color="#6A757D"/>
</linearGradient>
</defs>
</svg>
