<svg width="45" height="65" viewBox="0 0 45 65" fill="none" xmlns="http://www.w3.org/2000/svg">
<path d="M11.25 65C17.46 65 22.5 60.1467 22.5 54.1667V43.3334H11.25C5.04 43.3334 0 48.1867 0 54.1667C0 60.1467 5.04 65 11.25 65Z" fill="#0ACF83"/>
<path d="M0 32.5C0 26.52 5.04 21.6666 11.25 21.6666H22.5V43.3333H11.25C5.04 43.3333 0 38.48 0 32.5Z" fill="#A259FF"/>
<path d="M0 10.8333C0 4.85333 5.04 0 11.25 0H22.5V21.6667H11.25C5.04 21.6667 0 16.8133 0 10.8333Z" fill="#F24E1E"/>
<path d="M22.5 0H33.75C39.96 0 45 4.85333 45 10.8333C45 16.8133 39.96 21.6667 33.75 21.6667H22.5V0Z" fill="#FF7262"/>
<path d="M45 32.5C45 38.48 39.96 43.3333 33.75 43.3333C27.54 43.3333 22.5 38.48 22.5 32.5C22.5 26.52 27.54 21.6666 33.75 21.6666C39.96 21.6666 45 26.52 45 32.5Z" fill="#1ABCFE"/>
</svg>
