<svg width="47" height="35" viewBox="0 0 47 35" fill="none" xmlns="http://www.w3.org/2000/svg">
<path d="M38.8177 1.15738L35.8487 3.47696L23.207 12.8712L10.5653 3.38418L7.59623 1.0646C6.89677 0.48597 6.04292 0.125264 5.14047 0.0271688C4.23801 -0.070926 3.3266 0.0979015 2.51916 0.512735C1.71172 0.927568 1.04372 1.57018 0.597928 2.36095C0.152137 3.15172 -0.051859 4.05591 0.0112137 4.96149V31.8454C0.0112137 32.682 0.343575 33.4844 0.935182 34.076C1.52679 34.6676 2.32918 35 3.16584 35H10.5653V17.0929L23.207 26.5799L35.8487 17.0929V35H43.2481C44.0848 35 44.8872 34.6676 45.4788 34.076C46.0704 33.4844 46.4027 32.682 46.4027 31.8454V4.96149C46.4463 4.06372 46.2281 3.17264 45.7747 2.39655C45.3213 1.62047 44.6522 0.9928 43.8488 0.589853C43.0454 0.186905 42.1422 0.0260306 41.249 0.126783C40.3559 0.227535 39.5112 0.585575 38.8177 1.15738Z" fill="#202529"/>
</svg>
