<svg width="60" height="65" viewBox="0 0 60 65" fill="none" xmlns="http://www.w3.org/2000/svg">
<path d="M5.43707 58.5039L0 0H59.74L54.2987 58.4957L29.8319 65L5.43707 58.5039Z" fill="#E44D26"/>
<path d="M49.6387 54.7704L54.2902 4.78381H29.87V60.0294L49.6387 54.7704Z" fill="#F16529"/>
<path d="M29.8447 11.9584H11.1156L13.1333 33.6569H29.8701V26.4823H19.9741L19.2903 19.135H29.8701V11.9584H29.8447ZM29.8701 45.0932L29.8383 45.1013L21.5091 42.944L20.9798 37.2218H13.4679L14.5159 48.4875L29.8362 52.5501L29.8701 52.5399V45.0932Z" fill="#EBEBEB"/>
<path d="M29.8446 33.6569H39.0546L38.2077 42.9603L29.8657 45.1196V52.5846L45.1988 48.5078L47.2525 26.4782H29.87L29.8446 33.6569ZM48.4 13.8841L48.5779 11.9584H29.8403V19.133H47.9046L48.0528 17.5201L48.4 13.8841Z" fill="white"/>
</svg>
