<svg width="70" height="65" viewBox="0 0 70 65" fill="none" xmlns="http://www.w3.org/2000/svg">
<path d="M12.2852 0H57.0903C63.8833 0 69.3755 5.27778 69.3755 11.8056V53.1944C69.3755 59.7222 63.8833 65 57.0903 65H12.2852C5.49223 65 0 59.7222 0 53.1944V11.8056C0 5.27778 5.49223 0 12.2852 0Z" fill="#330000"/>
<path d="M33.5314 38.8889H22.7782L20.5813 45.4167C20.5235 45.6667 20.2923 45.8334 20.0321 45.8056H14.5977C14.2797 45.8056 14.193 45.6389 14.2797 45.3056L23.5876 19.5556C23.6743 19.2778 23.761 18.9723 23.8767 18.6389C23.9923 18.0556 24.0501 17.4445 24.0501 16.8334C24.0212 16.6945 24.1368 16.5556 24.2814 16.5278H24.3681H31.7681C31.9994 16.5278 32.115 16.6112 32.1439 16.7501L42.6948 45.3612C42.7815 45.6667 42.6948 45.8056 42.4057 45.8056H36.3643C36.1619 45.8334 35.9596 45.6945 35.9018 45.5L33.5314 38.8889ZM24.4548 33.2501H31.797C31.6236 32.6667 31.3923 31.9723 31.1322 31.2501C30.872 30.5001 30.6119 29.6945 30.3517 28.8612C30.0626 28.0001 29.8025 27.1667 29.5134 26.3056C29.2244 25.4445 28.9642 24.6389 28.7329 23.8334C28.5017 23.0556 28.2993 22.3334 28.097 21.6667H28.0392C27.779 22.8612 27.4611 24.0556 27.0564 25.2501C26.6228 26.5834 26.1892 27.9723 25.7267 29.3612C25.322 30.7778 24.8884 32.0834 24.4548 33.2501Z" fill="#FF9A00"/>
<path d="M49.1409 21.3888C48.187 21.4166 47.262 21.0555 46.5682 20.4166C45.9034 19.7222 45.5565 18.8055 45.5854 17.8611C45.5565 16.9166 45.9323 16.0277 46.626 15.3888C47.3198 14.75 48.2448 14.4166 49.1987 14.4166C50.3261 14.4166 51.1933 14.75 51.8292 15.3888C52.4652 16.0555 52.812 16.9444 52.7831 17.8611C52.812 18.8055 52.4652 19.7222 51.7714 20.4166C51.1065 21.0833 50.1237 21.4444 49.1409 21.3888ZM45.9034 45.5V24.1111C45.9034 23.8333 46.019 23.7222 46.2792 23.7222H52.0026C52.2628 23.7222 52.3784 23.8611 52.3784 24.1111V45.5C52.3784 45.8055 52.2628 45.9444 52.0026 45.9444H46.337C46.0479 45.9444 45.9034 45.7777 45.9034 45.5Z" fill="#FF9A00"/>
</svg>
