<svg width="50" height="65" viewBox="0 0 50 65" fill="none" xmlns="http://www.w3.org/2000/svg">
<path d="M16.1495 50.2516C16.1495 50.2516 13.5453 51.771 17.9597 52.2057C23.2738 52.8557 26.1045 52.748 31.9861 51.6633C33.1682 52.3578 34.4184 52.9395 35.7187 53.4001C22.4863 58.8276 5.73925 53.0751 16.1474 50.2516H16.1495ZM14.4557 43.197C14.4557 43.197 11.6272 45.2587 16.0394 45.6954C21.8087 46.2378 26.3332 46.3455 34.1414 44.8281C34.9008 45.567 35.8305 46.1243 36.8556 46.4551C20.9047 51.0133 3.03135 46.8898 14.4557 43.199V43.197ZM45.678 55.5674C45.678 55.5674 47.6004 57.0868 43.529 58.2812C35.9495 60.4547 11.7415 61.1047 4.95377 58.2812C2.57827 57.3062 7.10272 55.8945 8.553 55.6771C10.0244 55.3521 10.8184 55.3521 10.8184 55.3521C8.21424 53.6154 -6.48967 58.9332 3.35317 60.4506C30.3897 64.6838 52.6753 58.6062 45.6611 55.5674H45.678ZM17.3732 35.8153C17.3732 35.8153 5.04269 38.6388 12.961 39.6138C16.3549 40.0485 23.0283 39.9388 29.2507 39.5062C34.3404 39.0715 39.4344 38.2062 39.4344 38.2062C39.4344 38.2062 37.6242 38.9658 36.3793 39.7255C23.8243 42.874 -0.273587 41.4623 6.62847 38.2062C12.51 35.4924 17.3753 35.8194 17.3753 35.8194L17.3732 35.8153ZM39.4344 47.6455C52.1037 41.3485 46.2221 35.275 42.1486 36.0327C41.1324 36.25 40.6772 36.4674 40.6772 36.4674C40.6772 36.4674 41.0159 35.8174 41.8078 35.6C49.8404 32.8863 56.175 43.7393 39.2036 47.9705C39.2036 47.9705 39.3158 47.8628 39.4302 47.6455H39.4344ZM18.6224 64.7935C30.8386 65.5532 49.5059 64.3588 49.9568 58.8215C49.9568 58.8215 49.0528 60.995 39.8896 62.62C29.4815 64.4644 16.5856 64.245 9.00608 63.0547C9.00608 63.0547 10.5897 64.3547 18.6224 64.7914V64.7935Z" fill="#4E7896"/>
<path d="M31.7617 0C31.7617 0 38.7759 6.83726 25.0883 17.148C14.1149 25.5046 22.6006 30.2802 25.0883 35.7077C18.6393 30.1725 14.0026 25.2873 17.17 20.7311C21.8066 13.9995 34.5902 10.7637 31.7617 0ZM28.1624 31.1495C31.4441 34.7307 27.2584 37.9868 27.2584 37.9868C27.2584 37.9868 35.6298 33.8633 31.7828 28.7608C28.2768 23.8776 25.5583 21.4888 40.2664 13.3495C40.2664 13.3495 17.0768 18.8847 28.1624 31.1495Z" fill="#F58219"/>
</svg>
