<svg width="70" height="65" viewBox="0 0 70 65" fill="none" xmlns="http://www.w3.org/2000/svg">
<path fill-rule="evenodd" clip-rule="evenodd" d="M63.9471 50.275C60.1706 50.174 57.2408 50.5454 54.7853 51.5364C54.0782 51.8089 52.9436 51.8089 52.8505 52.6627C53.2283 53.021 53.2738 53.6073 53.6051 54.1038C54.1714 55.005 55.1642 56.2191 56.0607 56.8488L59.0825 58.9207C60.9242 60.0005 63.0019 60.6312 64.796 61.7121C65.8354 62.3428 66.8737 63.1532 67.9131 63.8293C68.4423 64.1896 68.763 64.776 69.4245 65V64.8638C69.0943 64.4601 68.999 63.8748 68.6698 63.4226L67.2515 62.1178C65.883 60.3618 64.1821 58.8298 62.3404 57.5704C60.8289 56.5793 57.5245 55.2291 56.9106 53.5639L56.8175 53.463C57.8547 53.3621 59.0825 53.0119 60.0753 52.7414C61.682 52.3377 63.1448 52.4265 64.796 52.0219L67.0642 51.3911V50.9874C66.2143 50.1771 65.6004 49.0962 64.7039 48.3313C62.2959 46.3502 59.6498 44.4136 56.9106 42.7929C55.4468 41.8927 53.5575 41.3063 51.9995 40.5424C51.4311 40.2719 50.488 40.1367 50.1578 39.6866C49.3058 38.6976 48.8348 37.3907 48.2209 36.219L44.3491 28.3847C43.4992 26.6287 42.9784 24.8727 41.9412 23.252C37.0766 15.5973 31.7865 10.9601 23.6641 6.41169C21.9177 5.46609 19.84 5.05938 17.631 4.56488L14.0895 4.38323C13.3327 4.06836 12.578 3.21257 11.9165 2.80688C9.2249 1.18612 2.28262 -2.32584 0.298051 2.30228C-0.977365 5.22892 2.18735 8.11015 3.26167 9.59668C4.06608 10.6321 5.10335 11.8028 5.67173 12.9734C5.98926 13.7384 6.09511 14.5498 6.4264 15.3601C7.18106 17.3412 7.89021 19.5483 8.88197 21.3951C9.41119 22.3407 9.96687 23.3327 10.6284 24.1875C11.0063 24.6921 11.6678 24.9081 11.8085 25.7184C11.147 26.6196 11.1015 27.9689 10.7236 29.0962C9.02274 34.1845 9.68426 40.4879 12.0922 44.234C12.849 45.3592 14.6325 47.8368 17.052 46.8901C19.1774 46.0798 18.7032 43.5134 19.3171 41.2619C19.46 40.722 19.3647 40.3617 19.6473 40.0004V40.1014L21.5843 43.8384C23.0481 46.0445 25.5989 48.3414 27.7232 49.8733C28.8557 50.6837 29.7533 52.0804 31.1695 52.5749V52.4387H31.0763C30.7927 52.035 30.3672 51.8533 29.9893 51.5385C29.1394 50.7281 28.1953 49.7371 27.5337 48.8369C25.5513 46.3159 23.8049 43.5235 22.2458 40.6423C21.489 39.2466 20.8275 37.7156 20.2157 36.3199C19.9299 35.779 19.9299 34.9676 19.4589 34.6992C18.7498 35.6882 17.7125 36.546 17.1907 37.7611C16.2931 39.6967 16.2 42.0834 15.8698 44.5599C15.6792 44.6054 15.7639 44.5599 15.6792 44.6609C14.1699 44.3016 13.6492 42.8141 13.0829 41.5546C11.6667 38.3575 11.4296 33.2248 12.6574 29.5322C12.9876 28.5865 14.4059 25.6145 13.8397 24.7143C13.5539 23.8585 12.6119 23.364 12.0911 22.6879C11.4772 21.8321 10.8178 20.7522 10.3923 19.8066C9.25982 17.2837 8.69356 14.4933 7.46472 11.9713C6.89634 10.8006 5.90565 9.58457 5.10229 8.50474C4.20474 7.28867 3.2151 6.43288 2.50595 4.99278C2.26992 4.48818 1.93968 3.68689 2.31754 3.14597C2.41069 2.78569 2.60121 2.64137 2.97695 2.56064C3.59084 2.05604 5.33938 2.69587 5.95327 2.96431C7.69969 3.64047 9.16351 4.2702 10.6273 5.2148C11.2888 5.6649 11.998 6.52069 12.8479 6.74674H13.8407C15.3522 7.06161 17.051 6.84766 18.4661 7.25134C20.9693 8.01832 23.2354 9.14255 25.2676 10.3596C31.4531 14.0966 36.5548 19.41 40.001 25.7598C40.5673 26.7952 40.8033 27.7408 41.3241 28.8217C42.3169 31.0288 43.5447 33.2793 44.5343 35.4419C45.5271 37.5582 46.4713 39.7209 47.8875 41.4769C48.5966 42.4225 51.429 42.917 52.7033 43.4125C53.6485 43.8162 55.1113 44.1795 55.9633 44.674C57.5679 45.6196 59.1735 46.7004 60.6839 47.7359C61.4386 48.2748 63.801 49.401 63.9418 50.2992L63.9471 50.275ZM15.7883 11.1468C15.1358 11.1413 14.4854 11.2169 13.8534 11.3718V11.4728H13.9466C14.3244 12.1933 14.986 12.6888 15.458 13.3196L16.545 15.4812L16.6382 15.3803C17.2997 14.9302 17.631 14.2097 17.631 13.1298C17.3473 12.815 17.3008 12.4991 17.0647 12.1842C16.7811 11.7341 16.1672 11.5081 15.7883 11.1488V11.1468Z" fill="#00678C"/>
</svg>
