<svg width="70" height="65" viewBox="0 0 70 65" fill="none" xmlns="http://www.w3.org/2000/svg">
<path d="M12.3329 0H57.3117C64.1311 0 69.6446 5.27778 69.6446 11.8056V53.1944C69.6446 59.7222 64.1311 65 57.3117 65H12.3329C5.51353 65 0 59.7222 0 53.1944V11.8056C0 5.27778 5.51353 0 12.3329 0Z" fill="#001E36"/>
<path d="M15.67 45.5834V17.0001C15.67 16.8056 15.7571 16.6945 15.9602 16.6945C16.4535 16.6945 16.9178 16.6945 17.5853 16.6667C18.2817 16.6389 19.0072 16.6389 19.7907 16.6112C20.5742 16.5834 21.4157 16.5834 22.3153 16.5556C23.2149 16.5278 24.0854 16.5278 24.956 16.5278C27.3355 16.5278 29.3088 16.8056 30.9338 17.3889C32.3848 17.8612 33.7196 18.6389 34.8223 19.6667C35.7509 20.5556 36.4764 21.6389 36.9407 22.8334C37.3759 24.0001 37.6081 25.1945 37.6081 26.4445C37.6081 28.8334 37.0277 30.8056 35.867 32.3612C34.7062 33.9167 33.0812 35.0834 31.195 35.7501C29.2217 36.4445 27.0453 36.6945 24.6658 36.6945C23.9694 36.6945 23.5051 36.6945 23.2149 36.6667C22.9247 36.6389 22.5184 36.6389 21.9671 36.6389V45.5556C21.9961 45.7501 21.851 45.9167 21.6479 45.9445C21.6189 45.9445 21.5898 45.9445 21.5318 45.9445H16.0183C15.7861 45.9445 15.67 45.8334 15.67 45.5834ZM21.9961 22.0556V31.3889C22.4024 31.4167 22.7796 31.4445 23.1278 31.4445H24.6658C25.7975 31.4445 26.9293 31.2778 28.0029 30.9445C28.9315 30.6945 29.7441 30.1667 30.3825 29.4723C30.9919 28.7778 31.282 27.8334 31.282 26.6112C31.3111 25.7501 31.0789 24.8889 30.6146 24.1389C30.1213 23.4167 29.4249 22.8612 28.5833 22.5556C27.5096 22.1389 26.3489 21.9723 25.1591 22.0001C24.4046 22.0001 23.7372 22.0001 23.1859 22.0278C22.6055 22.0001 22.1992 22.0278 21.9961 22.0556Z" fill="#31A8FF"/>
<path d="M55.7157 29.6945C54.8451 29.2501 53.9165 28.9445 52.9299 28.7501C51.8562 28.5279 50.7825 28.389 49.6798 28.389C49.0994 28.3612 48.49 28.4445 47.9387 28.5834C47.5614 28.6667 47.2422 28.8612 47.0391 29.139C46.894 29.3612 46.807 29.639 46.807 29.889C46.807 30.139 46.923 30.389 47.0971 30.6112C47.3583 30.9167 47.7065 31.1667 48.0838 31.3612C48.7512 31.6945 49.4476 32.0001 50.1441 32.2779C51.7111 32.7779 53.2201 33.4723 54.6129 34.3056C55.5706 34.889 56.3541 35.6667 56.9054 36.6112C57.3697 37.5001 57.6019 38.4723 57.5728 39.4723C57.6019 40.7779 57.1956 42.0834 56.4411 43.1667C55.6286 44.2779 54.4969 45.139 53.191 45.639C51.7691 46.2223 50.028 46.5279 47.9387 46.5279C46.6038 46.5279 45.298 46.4167 43.9921 46.1667C42.9765 46.0001 41.9608 45.6945 41.0322 45.2779C40.8291 45.1667 40.684 44.9723 40.713 44.7501V39.9167C40.713 39.8334 40.7421 39.7223 40.8291 39.6667C40.9162 39.6112 41.0032 39.639 41.0903 39.6945C42.222 40.3334 43.4118 40.7779 44.6886 41.0556C45.7913 41.3334 46.952 41.4723 48.1128 41.4723C49.2155 41.4723 49.999 41.3334 50.5213 41.0834C50.9856 40.889 51.3048 40.4167 51.3048 39.9167C51.3048 39.5279 51.0727 39.1667 50.6084 38.8056C50.1441 38.4445 49.1865 38.0279 47.7646 37.5001C46.2846 37.0001 44.9207 36.3334 43.6439 35.5001C42.7443 34.889 41.9899 34.0834 41.4385 33.139C40.9742 32.2501 40.7421 31.2779 40.7711 30.3056C40.7711 29.1112 41.1193 27.9723 41.7577 26.9445C42.4832 25.8334 43.5569 24.9445 44.8047 24.389C46.1685 23.7223 47.8806 23.4167 49.941 23.4167C51.1307 23.4167 52.3495 23.5001 53.5393 23.6667C54.4098 23.7779 55.2514 24.0001 56.0349 24.3056C56.1509 24.3334 56.267 24.4445 56.325 24.5556C56.3541 24.6667 56.3831 24.7779 56.3831 24.889V29.4167C56.3831 29.5279 56.325 29.639 56.238 29.6945C55.9768 29.7501 55.8317 29.7501 55.7157 29.6945Z" fill="#31A8FF"/>
</svg>
