<svg width="37" height="35" viewBox="0 0 37 35" fill="none" xmlns="http://www.w3.org/2000/svg">
<path fill-rule="evenodd" clip-rule="evenodd" d="M30.8749 5.08699C29.2079 3.46969 27.2245 2.18729 25.0396 1.3141C22.8547 0.4409 20.5118 -0.00573846 18.1465 5.5659e-05C8.22836 5.5659e-05 0.154345 7.78018 0.150336 17.3435C0.150336 20.3999 0.978182 23.3829 2.55169 26.0143L0 35L9.53929 32.5869C12.178 33.9714 15.1342 34.6973 18.1385 34.6986H18.1465C28.0626 34.6986 36.1366 26.9185 36.1407 17.3551C36.1475 15.0763 35.6856 12.8188 34.7818 10.7131C33.8779 8.60732 32.5501 6.69512 30.8749 5.08699ZM18.1465 31.7716H18.1405C15.4615 31.7719 12.8319 31.0772 10.5275 29.7604L9.98228 29.4475L4.32164 30.8791L5.83101 25.5603L5.47622 25.0155C3.97845 22.7172 3.18558 20.0576 3.18912 17.3435C3.19313 9.39533 9.9021 2.92895 18.1525 2.92895C20.1174 2.92475 22.0636 3.29619 23.8786 4.02179C25.6935 4.74738 27.3412 5.81272 28.7261 7.15615C30.1185 8.49317 31.2221 10.0829 31.9731 11.8335C32.7242 13.5841 33.1078 15.4608 33.1019 17.3551C33.0979 25.3033 26.3889 31.7716 18.1465 31.7716ZM26.3508 20.9737C25.8998 20.7554 23.6909 19.7083 23.2779 19.5634C22.867 19.4185 22.5684 19.347 22.2677 19.7798C21.967 20.2125 21.1051 21.1882 20.8425 21.478C20.5799 21.7678 20.3173 21.8026 19.8683 21.5862C19.4193 21.3698 17.9701 20.9119 16.2523 19.4359C14.9153 18.2864 14.0133 16.8683 13.7507 16.4336C13.4881 15.9989 13.7226 15.7651 13.9491 15.5487C14.1516 15.3555 14.3981 15.0425 14.6226 14.7894C14.8471 14.5364 14.9213 14.3567 15.0716 14.0669C15.222 13.7771 15.1478 13.524 15.0335 13.3076C14.9213 13.0893 14.0213 10.9564 13.6465 10.0889C13.2836 9.2485 12.9128 9.36055 12.6362 9.34896C12.3497 9.33767 12.063 9.33251 11.7763 9.3335C11.5483 9.3391 11.3239 9.39004 11.1173 9.48313C10.9107 9.57622 10.7263 9.70945 10.5756 9.87446C10.1627 10.3092 9.00209 11.3563 9.00209 13.4892C9.00209 15.6221 10.6137 17.6836 10.8382 17.9734C11.0627 18.2632 14.0093 22.6391 18.5193 24.517C19.5937 24.9633 20.4316 25.2299 21.083 25.4309C22.1595 25.7612 23.1396 25.7129 23.9154 25.6028C24.7793 25.4792 26.5753 24.5557 26.9501 23.5433C27.325 22.5309 27.325 21.6635 27.2127 21.4819C27.1005 21.3003 26.7978 21.1901 26.3508 20.9737Z" fill="#202529"/>
</svg>
